#!OML:ASF F:\VICON\USERDATA\INSTALL\rory3\rory3.ASF
:FULLY-SPECIFIED
:DEGREES
1397
root -8.79404 17.7011 1.8358 -360.337 30.8158 2.8109
lowerback 11.6973 2.21101 -2.63569
upperback 0.662228 2.62048 0.343846
thorax -6.00141 1.36617 1.40687
lowerneck -22.3736 -3.43908 -11.2801
upperneck 30.9824 -2.9077 7.13873
head 14.7876 -1.50532 4.37468
rclavicle 5.45664e-014 -1.51076e-014
rhumerus -38.1985 -13.2505 -76.2635
rradius 34.9815
rwrist 7.64167
rhand -15.2595 9.66872
rfingers 7.12502
rthumb 10.9145 -20.0276
lclavicle 5.45664e-014 -1.51076e-014
lhumerus -28.848 2.27534 79.2394
lradius 30.9931
lwrist -2.02099
lhand -20.5029 25.4238
lfingers 7.12502
lthumb 5.85432 55.3229
rfemur -12.459 -8.64978 18.5796
rtibia 46.6569
rfoot -20.9724 11.6114
rtoes -15.2872
lfemur -7.83588 -6.73903 -22.3859
ltibia 26.0031
lfoot -13.7519 -6.67233
ltoes -6.33316
1398
root -8.77432 17.694 1.79717 -360.359 30.4172 2.78642
lowerback 11.6499 2.25154 -2.62512
upperback 0.694346 2.67872 0.365583
thorax -5.94421 1.394 1.41619
lowerneck -22.3918 -3.43588 -11.4574
upperneck 30.9492 -2.86592 7.23909
head 14.7771 -1.49454 4.45468
rclavicle 2.36554e-014 -1.66979e-014
rhumerus -38.1244 -13.1083 -76.2829
rradius 34.8374
rwrist 7.57295
rhand -15.0594 9.4718
rfingers 7.12502
rthumb 11.1075 -20.2142
lclavicle 2.36554e-014 -1.66979e-014
lhumerus -28.9634 2.4089 79.1857
lradius 31.1725
lwrist -1.90996
lhand -20.5807 25.3409
lfingers 7.12502
lthumb 5.77918 55.2421
rfemur -12.0209 -8.02494 19.1771
rtibia 46.0989
rfoot -19.8213 12.303
rtoes -7.9125
lfemur -8.07085 -6.51028 -22.4838
ltibia 26.3707
lfoot -13.8234 -6.51543
ltoes -5.79616
1399
root -8.75692 17.6875 1.75697 -360.393 30.0881 2.78437
lowerback 11.6884 2.2959 -2.63818
upperback 0.722028 2.73637 0.386733
thorax -5.94091 1.4226 1.43511
lowerneck -22.4029 -3.44109 -11.4473
upperneck 30.8797 -2.83595 7.1246
head 14.7426 -1.49588 4.40614
rclavicle 7.65321e-015 1.19271e-014
rhumerus -38.1032 -12.9221 -76.2845
rradius 34.7747
rwrist 7.4493
rhand -14.5531 9.0693
rfingers 7.12502
rthumb 11.5958 -20.5899
lclavicle 7.65321e-015 1.19271e-014
lhumerus -28.9509 2.40179 79.2691
lradius 31.2616
lwrist -1.69084
lhand -20.6387 25.7721
lfingers 7.12502
lthumb 5.72318 55.6748
rfemur -11.5142 -7.40076 19.7089
rtibia 45.3743
rfoot -18.7847 12.4514
rtoes -0.319109
lfemur -8.28018 -6.32011 -22.5899
ltibia 26.7284
lfoot -13.8627 -6.40807
ltoes -5.05489
1400
root -8.74017 17.6838 1.71449 -360.342 29.8332 2.73457
lowerback 11.6836 2.30803 -2.53249
upperback 0.682563 2.76463 0.36657
thorax -5.97522 1.43387 1.34901
lowerneck -22.4128 -3.44869 -11.4014
upperneck 30.8492 -2.83336 7.03495
head 14.7284 -1.50175 4.35882
rclavicle -8.27938e-014 -3.97569e-016
rhumerus -38.0493 -12.6294 -76.3911
rradius 34.6189
rwrist 7.08542
rhand -14.2556 8.46776
rfingers 7.12502
rthumb 11.8827 -21.1751
lclavicle -8.27938e-014 -3.97569e-016
lhumerus -28.9653 2.45219 79.2638
lradius 31.3248
lwrist -1.70441
lhand -20.4721 25.7854
lfingers 7.12502
lthumb 5.88407 55.6837
rfemur -11.115 -6.81575 20.2679
rtibia 44.495
rfoot -18.1586 11.5926
rtoes 6.21903
lfemur -8.60183 -6.29309 -22.6238
ltibia 27.0655
lfoot -13.8256 -6.31795
ltoes -3.65767
1401
root -8.71777 17.6791 1.67466 -360.195 29.6468 2.76245
lowerback 11.5353 2.29978 -2.36966
upperback 0.656209 2.77333 0.280964
thorax -5.90813 1.43237 1.17126
lowerneck -22.3866 -3.45139 -11.4619
upperneck 30.8506 -2.85663 7.14695
head 14.729 -1.50357 4.4126
rclavicle 3.38431e-014 -5.56597e-015
rhumerus -38.0325 -12.5915 -76.4456
rradius 34.3721
rwrist 7.10702
rhand -15.1702 8.67467
rfingers 7.12502
rthumb 11.0006 -21.0171
lclavicle 3.38431e-014 -5.56597e-015
lhumerus -28.888 2.64152 79.1719
lradius 31.2496
lwrist -1.87269
lhand -20.2625 25.6456
lfingers 7.12502
lthumb 6.08634 55.5382
rfemur -10.7574 -6.38657 20.6729
rtibia 43.475
rfoot -19.0137 7.68616
rtoes 3.67053
lfemur -8.97525 -6.22247 -22.7371
ltibia 27.4208
lfoot -13.8673 -6.23528
ltoes -3.26426
1402
root -8.69127 17.664 1.63784 -360.055 29.4641 2.90779
lowerback 11.3594 2.28761 -2.31736
upperback 0.693992 2.76359 0.191183
thorax -5.7623 1.42395 1.05705
lowerneck -22.4581 -3.45432 -11.5372
upperneck 30.8864 -2.86096 7.25313
head 14.7649 -1.49983 4.47243
rclavicle 2.1419e-014 -1.15295e-014
rhumerus -38.041 -12.7603 -76.3728
rradius 34.0576
rwrist 7.81237
rhand -16.7672 9.68355
rfingers 7.12502
rthumb 9.45993 -20.0841
lclavicle 2.1419e-014 -1.15295e-014
lhumerus -28.7805 2.90788 79.111
lradius 31.1332
lwrist -2.02533
lhand -20.1677 25.6338
lfingers 7.12502
lthumb 6.17794 55.5237
rfemur -10.3276 -6.08021 20.8237
rtibia 42.3549
rfoot -19.854 4.20892
rtoes 0.704857
lfemur -9.28415 -6.07788 -22.9929
ltibia 27.8152
lfoot -14.0841 -6.03668
ltoes -3.81527
1403
root -8.66798 17.6447 1.5992 -359.987 29.2551 2.95438
lowerback 11.312 2.25711 -2.21184
upperback 0.696495 2.73554 0.15428
thorax -5.72512 1.40676 0.965699
lowerneck -22.5448 -3.43007 -11.6087
upperneck 30.8783 -2.78774 7.25634
head 14.7727 -1.47635 4.50015
rclavicle -2.35808e-014 -7.95139e-015
rhumerus -38.0144 -12.7253 -76.3336
rradius 33.7758
rwrist 8.19658
rhand -17.3854 10.3119
rfingers 7.12502
rthumb 8.86341 -19.482
lclavicle -2.35808e-014 -7.95139e-015
lhumerus -28.8079 3.11563 79.0891
lradius 31.0694
lwrist -2.045
lhand -20.0689 25.3678
lfingers 7.12502
lthumb 6.27333 55.255
rfemur -9.91709 -5.73347 21.016
rtibia 41.2036
rfoot -20.5216 1.48874
rtoes -0.596911
lfemur -9.60781 -5.89832 -23.145
ltibia 28.2591
lfoot -14.3635 -5.85644
ltoes -4.91663
1404
root -8.64555 17.6323 1.55556 -359.963 29.1373 2.84113
lowerback 11.3631 2.18861 -1.88163
upperback 0.642849 2.68294 0.121824
thorax -5.79133 1.3725 0.751883
lowerneck -22.6441 -3.38059 -11.5731
upperneck 30.9231 -2.69306 7.18626
head 14.801 -1.44204 4.48478
rclavicle -5.2181e-014 -1.51076e-014
rhumerus -38.0133 -12.6123 -76.3481
rradius 33.6395
rwrist 8.16167
rhand -17.5086 10.47
rfingers 7.12502
rthumb 8.74452 -19.3289
lclavicle -5.2181e-014 -1.51076e-014
lhumerus -28.86 3.31281 79.0736
lradius 31.016
lwrist -2.02368
lhand -20.1788 25.0759
lfingers 7.12502
lthumb 6.16716 54.9661
rfemur -9.59093 -5.56062 21.3054
rtibia 40.0785
rfoot -20.8102 0.153765
rtoes 2.05065
lfemur -10.0296 -5.81702 -23.1382
ltibia 28.7508
lfoot -14.571 -5.80065
ltoes -5.14992
1405
root -8.6248 17.6238 1.50647 -359.927 29.0732 2.65119
lowerback 11.4672 2.13006 -1.43052
upperback 0.55279 2.65877 0.0934822
thorax -5.92157 1.34886 0.467005
lowerneck -22.6905 -3.39289 -11.5741
upperneck 30.9393 -2.6813 7.11719
head 14.8165 -1.44723 4.4586
rclavicle -4.3509e-014 9.93923e-015
rhumerus -38.1398 -12.7016 -76.2697
rradius 33.6483
rwrist 8.18518
rhand -17.7126 10.4894
rfingers 7.12502
rthumb 8.54767 -19.3176
lclavicle -4.3509e-014 9.93923e-015
lhumerus -28.9241 3.14401 79.2379
lradius 31.111
lwrist -1.56061
lhand -20.7829 25.455
lfingers 7.12502
lthumb 5.58393 55.3615
rfemur -9.34773 -5.44926 21.615
rtibia 39.0044
rfoot -20.9307 -0.153797
rtoes 4.92435
lfemur -10.5639 -5.75764 -23.0419
ltibia 29.2936
lfoot -14.8907 -5.76008
ltoes -5.83641
1406
root -8.6038 17.6173 1.45799 -359.913 28.964 2.37818
lowerback 11.5874 2.08629 -0.901163
upperback 0.455796 2.66831 0.105065
thorax -6.06763 1.33916 0.173574
lowerneck -22.7947 -3.45972 -11.6054
upperneck 30.962 -2.70234 6.96804
head 14.8523 -1.48138 4.39767
rclavicle -8.1626e-014 -1.59028e-015
rhumerus -38.2502 -12.7435 -76.1677
rradius 33.6437
rwrist 8.04555
rhand -17.5565 10.3973
rfingers 7.12502
rthumb 8.69835 -19.4035
lclavicle -8.1626e-014 -1.59028e-015
lhumerus -29.0406 2.94408 79.4632
lradius 31.2888
lwrist -1.07813
lhand -21.283 26.0054
lfingers 7.12502
lthumb 5.1011 55.924
rfemur -9.10485 -5.08251 21.9451
rtibia 38.0007
rfoot -21.1873 -0.426196
rtoes 6.76016
lfemur -11.1201 -5.61414 -22.8579
ltibia 29.8609
lfoot -15.3315 -5.71314
ltoes -6.97841
1407
root -8.57965 17.6109 1.41213 -359.894 28.8716 2.13578
lowerback 11.636 2.01843 -0.421845
upperback 0.398604 2.64347 0.144025
thorax -6.13487 1.3137 -0.0537095
lowerneck -22.9668 -3.49048 -11.6361
upperneck 30.9969 -2.66105 6.81722
head 14.9006 -1.489 4.34877
rclavicle 1.21507e-014 7.95139e-015
rhumerus -38.2403 -12.5425 -76.0944
rradius 33.6024
rwrist 7.71145
rhand -17.2012 10.3137
rfingers 7.12502
rthumb 9.04116 -19.4726
lclavicle 1.21507e-014 7.95139e-015
lhumerus -29.1019 3.29133 79.5167
lradius 31.2521
lwrist -1.56027
lhand -20.8323 25.7119
lfingers 7.12502
lthumb 5.53631 55.6196
rfemur -8.82601 -4.63627 22.1731
rtibia 37.084
rfoot -21.6252 -1.20817
rtoes 6.73491
lfemur -11.6392 -5.50049 -22.7022
ltibia 30.4221
lfoot -15.8097 -5.78867
ltoes -7.89721
